<svg width="107" height="25" viewBox="0 0 107 25" fill="none" xmlns="http://www.w3.org/2000/svg">
<g clip-path="url(#clip0_730_704)">
<path fill-rule="evenodd" clip-rule="evenodd" d="M106.875 15.5469C106.875 20.7812 103.102 24.6094 97.8668 24.6094C92.5543 24.6094 88.8586 20.7812 88.8586 15.5469C88.8586 10.3906 92.5543 6.5625 97.8668 6.5625C103.102 6.5625 106.875 10.3906 106.875 15.5469ZM102.64 15.5469C102.64 12.4219 100.716 10.2344 97.8668 10.2344C95.0181 10.2344 93.0932 12.4219 93.0932 15.5469C93.0932 18.75 95.0181 20.9375 97.8668 20.9375C100.716 20.9375 102.64 18.75 102.64 15.5469Z" fill="#0065D0"/>
<path d="M82.7763 1.5625V6.79688H87.6268V10.3906H82.7763V17.8125C82.7763 19.5312 83.7002 20.4688 85.317 20.4688H87.6268V24.2969H84.7781C81.0824 24.2969 78.6187 22.1094 78.6187 18.2031V1.5625H82.7763Z" fill="#0065D0"/>
<path fill-rule="evenodd" clip-rule="evenodd" d="M64.529 15.5469C64.529 20.7812 60.7564 24.6094 55.5209 24.6094C50.2084 24.6094 46.5127 20.7812 46.5127 15.5469C46.5127 10.3906 50.2084 6.5625 55.5209 6.5625C60.7564 6.5625 64.529 10.3906 64.529 15.5469ZM60.2944 15.5469C60.2944 12.4219 58.3696 10.2344 55.5209 10.2344C52.6721 10.2344 50.7473 12.4219 50.7473 15.5469C50.7473 18.75 52.6721 20.9375 55.5209 20.9375C58.3696 20.9375 60.2944 18.75 60.2944 15.5469Z" fill="#0065D0"/>
<path fill-rule="evenodd" clip-rule="evenodd" d="M46.3586 7.57812C46.3586 11.9531 43.3559 15.0781 38.4284 15.0781H33.3469V24.2969H28.7273V0H38.4284C43.3559 0 46.3586 3.125 46.3586 7.57812ZM41.97 7.57812C41.97 5.625 40.8921 3.82812 38.1974 3.82812H33.3469V11.25H38.1974C40.8921 11.25 41.97 9.45312 41.97 7.57812Z" fill="#0065D0"/>
<path d="M66.3768 24.2969V12.9688C66.3768 9.0625 68.8406 6.79688 72.6132 6.79688H76.4629V10.7031H73.0752C71.5353 10.7031 70.6114 11.5625 70.6114 13.3594V24.2969H66.3768Z" fill="#0065D0"/>
<path fill-rule="evenodd" clip-rule="evenodd" d="M24.2618 2.89062V21.4062C24.2618 23.0469 23.0299 24.2969 21.413 24.2969H3.39674C1.85688 24.2969 0.625 23.0469 0.625 21.4062V2.89062C0.625 1.32812 1.85688 0 3.39674 0H21.413C23.0299 0 24.2618 1.32812 24.2618 2.89062ZM6.93841 15.5469C6.88708 15.5469 6.86141 15.5729 6.86141 15.625C6.55344 18.5156 5.70652 20.5469 4.8596 21.7969C4.78261 21.875 4.93659 21.9531 5.01359 21.9531C20.7971 14.6094 19.0263 18.2031 16.8705 20.4688C16.7165 20.625 16.9475 20.7812 17.1014 20.7031C28.0344 11.6406 16.8705 11.4844 6.93841 15.5469ZM6.09149 6.40625C6.09149 6.48438 6.16848 6.48438 6.16848 6.48438C14.2527 4.84375 17.7174 6.71875 18.9493 7.89063C19.1033 7.96875 19.1803 7.8125 19.1803 7.73437C14.8687 2.26562 6.63043 2.42188 3.8587 2.42188C3.7817 2.42188 3.70471 2.57812 3.8587 2.65625C4.62862 3.20312 5.39855 4.375 6.09149 6.40625ZM21.798 12.9688C20.2582 6.17188 11.173 6.71875 6.70743 8.35938C6.6561 8.35938 6.63043 8.38542 6.63043 8.4375C6.86141 9.76562 7.0154 11.0938 7.0154 12.6563C7.0154 12.9167 7.0154 13.2031 7.0154 13.5156C7.0154 13.5156 7.0154 13.5938 7.09239 13.5938C12.5589 11.7969 19.4882 10.4688 21.644 13.0469C21.644 13.125 21.798 13.125 21.798 12.9688Z" fill="#0065D0"/>
</g>
<defs>
<clipPath id="clip0_730_704">
<rect width="106.25" height="25" fill="white" transform="translate(0.625)"/>
</clipPath>
</defs>
</svg>
